<!--?xml version="1.0" standalone="no"?-->

<svg version="1.0" xmlns="http://www.w3.org/2000/svg" width="300.000000pt" height="300.000000pt" viewBox="0 0 300.000000 300.000000" preserveAspectRatio="xMidYMid meet">
<g transform="translate(0.000000,300.000000) scale(0.100000,-0.100000)" fill="#272727" stroke="none">
<path d="M0 2960 c0 -27 13 -67 40 -120 22 -43 36 -81 31 -84 -11 -7 -19 1
-44 54 l-21 45 -4 -42 c-2 -28 4 -55 18 -83 22 -43 18 -74 -6 -43 -12 16 -13
14 -14 -24 0 -49 8 -73 24 -73 6 0 50 78 96 174 47 96 88 175 93 175 18 2 1
-41 -83 -210 -85 -169 -101 -219 -70 -219 5 0 49 79 97 175 79 158 103 196
103 164 0 -6 -41 -91 -91 -191 -49 -99 -89 -187 -87 -196 8 -42 33 -10 114
152 55 110 92 172 97 167 6 -6 -25 -79 -82 -195 -87 -172 -101 -215 -76 -222
6 -2 50 78 99 177 54 109 92 176 96 168 9 -14 6 -21 -93 -217 -74 -148 -91
-202 -64 -202 7 0 52 80 101 178 50 99 91 170 93 160 3 -9 -36 -98 -86 -197
-59 -119 -88 -187 -84 -200 3 -12 9 -21 14 -21 5 0 48 79 96 175 78 157 103
197 103 165 0 -6 -41 -91 -90 -190 -69 -137 -89 -186 -84 -205 3 -14 10 -22
15 -20 4 3 48 84 96 181 56 112 90 171 96 165 7 -7 -23 -76 -82 -195 -65 -130
-91 -191 -86 -206 3 -11 9 -20 13 -20 4 0 40 69 81 153 93 188 107 213 114
194 3 -7 -37 -98 -89 -201 -85 -171 -92 -190 -80 -208 13 -19 21 -8 101 153
90 180 105 205 105 176 0 -10 -41 -101 -92 -202 -86 -172 -91 -186 -76 -201
15 -16 23 -5 105 160 80 160 103 197 103 165 0 -7 -45 -101 -99 -210 l-99
-198 -179 357 c-164 328 -178 354 -181 318 -3 -39 -3 -39 334 -716 1 -3 -1
-12 -5 -18 -5 -8 -67 106 -167 305 -151 301 -159 316 -162 276 -3 -36 16 -78
148 -343 90 -180 148 -306 142 -312 -5 -5 -65 104 -148 269 -132 265 -139 276
-142 236 -3 -36 14 -75 128 -303 79 -158 129 -269 125 -278 -4 -10 -50 73
-128 228 -116 232 -122 243 -125 204 -3 -34 13 -72 108 -261 102 -204 122
-253 103 -253 -5 0 -53 92 -108 203 -95 191 -100 200 -103 163 -3 -34 12 -71
99 -243 56 -112 107 -203 113 -203 6 0 133 245 281 545 149 299 273 544 278
544 4 1 7 -7 7 -16 0 -9 -124 -265 -275 -568 -224 -449 -274 -556 -267 -574 6
-18 10 -20 18 -9 6 7 132 257 280 555 148 298 272 542 277 543 4 0 7 -7 7 -16
0 -9 -124 -265 -276 -569 -207 -414 -274 -558 -269 -574 3 -11 9 -21 13 -21 4
0 131 248 282 550 151 303 278 550 282 550 5 0 8 -5 8 -10 0 -6 -126 -262
-280 -571 -224 -448 -279 -564 -269 -575 6 -8 14 -14 18 -14 3 0 130 247 281
550 154 307 278 546 283 541 5 -5 -116 -258 -274 -575 -262 -522 -282 -567
-267 -582 15 -15 37 26 294 541 l278 556 98 -193 c53 -106 97 -202 97 -212 1
-34 -15 -8 -100 164 -45 91 -84 167 -86 169 -2 3 -10 -2 -19 -11 -14 -14 -6
-34 79 -205 55 -110 92 -195 88 -202 -5 -7 -41 55 -91 156 -101 201 -99 198
-115 176 -10 -14 3 -46 83 -206 59 -119 91 -192 85 -198 -6 -6 -42 55 -98 166
-48 96 -91 175 -95 175 -29 0 -13 -49 71 -217 56 -114 89 -190 85 -200 -5 -11
-35 41 -94 160 -48 97 -92 176 -98 177 -31 1 -17 -43 66 -210 84 -168 101
-211 83 -210 -5 1 -46 79 -93 175 -47 96 -89 173 -95 172 -26 -8 -9 -58 74
-224 54 -108 86 -184 82 -192 -5 -8 -41 55 -97 168 -49 99 -92 180 -96 181 -4
0 -10 -10 -13 -23 -5 -16 19 -74 85 -204 56 -112 88 -187 84 -197 -4 -11 -36
43 -97 164 -49 99 -93 180 -98 180 -4 0 -10 -9 -14 -19 -4 -12 26 -80 86 -200
60 -119 89 -186 85 -198 -5 -12 -33 36 -97 165 -50 100 -95 182 -99 182 -4 0
-10 -10 -13 -21 -4 -15 23 -79 84 -200 83 -167 100 -210 82 -208 -5 0 -46 77
-93 172 -47 94 -90 172 -97 174 -31 10 -12 -48 73 -218 56 -113 89 -190 85
-198 -5 -8 -40 52 -95 163 -48 97 -93 176 -99 176 -17 -1 -211 -396 -203 -415
3 -8 10 -15 15 -15 5 0 48 79 96 175 78 157 105 199 105 163 0 -6 -42 -95 -94
-198 -71 -141 -91 -191 -84 -204 5 -9 14 -14 19 -10 5 3 46 78 90 167 82 164
94 185 104 175 4 -3 -37 -92 -90 -197 -82 -165 -94 -195 -84 -213 14 -26 9
-34 115 176 50 98 89 165 94 160 5 -5 -30 -87 -86 -197 -65 -128 -93 -194 -89
-207 4 -11 10 -20 15 -20 5 0 48 79 96 175 48 96 90 175 94 175 20 0 10 -27
-76 -197 -52 -103 -94 -192 -94 -198 0 -6 5 -16 12 -23 9 -9 32 31 101 169 73
148 91 178 103 168 8 -6 14 -18 14 -25 0 -50 46 28 205 346 162 323 195 384
195 350 0 -6 -83 -176 -184 -379 -175 -350 -200 -411 -165 -411 5 0 91 165
192 367 101 202 187 361 191 355 4 -6 -77 -178 -179 -382 -143 -287 -184 -376
-179 -395 3 -14 10 -22 15 -20 4 3 90 170 191 371 118 236 185 360 189 351 5
-9 -60 -150 -177 -385 -134 -268 -184 -377 -179 -391 3 -12 9 -21 13 -21 4 1
83 155 176 343 191 386 195 394 205 378 4 -6 -77 -180 -181 -387 -172 -345
-187 -378 -174 -396 14 -19 28 6 198 346 100 201 186 366 189 366 3 0 11 -11
17 -25 6 -14 15 -25 19 -25 5 0 132 248 283 550 151 303 278 550 282 550 5 0
8 -5 8 -10 0 -6 -124 -258 -275 -561 -151 -303 -275 -561 -275 -575 0 -13 6
-24 13 -24 6 0 135 248 286 550 175 350 278 547 284 541 6 -6 -93 -215 -272
-575 -199 -397 -280 -569 -274 -580 4 -8 13 -12 19 -8 5 4 133 254 283 555
172 343 277 544 282 536 4 -7 2 -24 -5 -38 -7 -14 -133 -267 -280 -560 -147
-294 -265 -542 -264 -550 2 -8 8 -16 15 -18 7 -3 117 205 283 539 150 299 276
547 281 553 35 36 -25 -92 -270 -583 -215 -430 -277 -562 -269 -575 5 -9 12
-17 16 -17 4 0 131 248 282 550 151 303 278 550 281 550 3 0 11 -11 17 -25 6
-14 15 -25 19 -25 8 0 394 768 393 783 0 4 -9 7 -19 7 -15 0 -41 -43 -116
-192 -53 -106 -100 -196 -104 -201 -4 -4 -52 83 -107 193 -85 170 -102 200
-121 200 -13 0 -23 -2 -23 -5 0 -3 50 -104 110 -225 103 -205 121 -251 103
-250 -5 1 -61 109 -127 240 -92 186 -123 240 -137 240 -11 0 -19 -4 -19 -9 0
-5 57 -122 126 -260 76 -153 124 -260 122 -273 -2 -16 -49 68 -143 257 -116
231 -144 281 -162 283 -13 2 -23 2 -23 0 0 -3 67 -138 149 -302 126 -250 157
-326 136 -326 -1 0 -73 142 -160 315 -141 284 -159 315 -181 315 -23 0 -14
-20 147 -341 98 -196 167 -345 162 -350 -5 -5 -83 140 -184 341 -151 303 -177
350 -196 350 -13 0 -23 -2 -23 -5 0 -3 43 -90 95 -195 52 -104 90 -192 85
-195 -12 -7 -15 -3 -108 184 -42 85 -82 156 -88 158 -33 11 -15 -43 73 -218
63 -125 92 -194 86 -200 -7 -7 -40 50 -98 165 -47 97 -91 178 -95 181 -5 3
-13 -2 -18 -11 -7 -12 15 -65 84 -202 52 -103 94 -192 94 -199 0 -35 -24 2
-104 162 -81 163 -106 195 -114 153 -2 -9 38 -97 87 -197 81 -162 110 -234 81
-205 -5 5 -48 87 -96 183 -79 160 -87 172 -102 157 -15 -15 -10 -30 76 -201
50 -102 92 -193 92 -203 -1 -30 -25 11 -108 180 -42 87 -81 156 -87 155 -5 -2
-54 -91 -108 -197 -70 -140 -96 -201 -92 -217 3 -13 9 -23 13 -23 4 0 48 82
98 182 55 110 93 175 96 166 4 -8 -34 -94 -84 -192 -83 -164 -99 -214 -73
-223 6 -2 50 77 99 174 50 98 91 171 93 162 2 -9 -37 -98 -86 -198 -83 -168
-97 -211 -67 -211 6 0 49 77 95 170 77 155 101 192 101 158 0 -7 -40 -94 -90
-193 -64 -128 -88 -186 -84 -202 4 -13 10 -21 14 -18 4 2 47 83 95 180 55 110
92 172 98 166 5 -5 -26 -78 -83 -194 -67 -134 -90 -191 -85 -206 3 -11 9 -21
13 -21 4 0 47 81 97 180 50 101 92 175 96 168 9 -14 12 -7 -100 -230 l-94
-187 -277 555 c-153 306 -280 558 -283 561 -3 2 -10 -5 -16 -16 -10 -17 29
-100 269 -582 160 -319 279 -568 275 -576 -3 -9 -120 215 -282 538 -152 305
-278 556 -280 559 -3 3 -11 -3 -18 -14 -12 -16 15 -77 266 -577 153 -307 279
-566 279 -574 0 -8 -3 -15 -7 -15 -5 1 -131 248 -282 551 -153 306 -279 548
-285 546 -6 -2 -12 -10 -14 -18 -2 -12 132 -286 544 -1110 7 -14 9 -31 5 -38
-5 -8 -110 192 -282 538 -151 303 -279 550 -286 551 -6 0 -15 -5 -18 -11 -4
-5 120 -265 275 -575 185 -369 279 -569 273 -575 -7 -7 -105 181 -284 540
-234 470 -299 588 -299 543 0 -5 -6 -16 -13 -26 -12 -16 -24 4 -113 183 -85
172 -102 201 -121 201 -13 0 -23 -2 -23 -5 0 -3 50 -104 110 -225 61 -121 110
-224 110 -230 0 -35 -32 17 -135 225 -103 207 -120 235 -141 235 -21 0 -14
-18 111 -267 119 -239 143 -295 115 -278 -4 3 -68 126 -141 275 -118 236 -137
269 -157 270 -13 0 -22 -4 -20 -8 1 -4 70 -142 152 -306 92 -184 145 -301 139
-307 -6 -6 -70 111 -168 306 -140 280 -160 315 -181 315 -22 0 -12 -24 146
-340 93 -187 170 -344 170 -350 0 -35 -35 28 -191 340 -149 300 -177 350 -196
350 -12 0 -26 -8 -32 -17 -9 -17 -10 -17 -16 0 -8 18 -45 24 -45 7 0 -6 7 -25
16 -42 11 -20 12 -34 6 -40 -7 -7 -18 6 -34 38 -16 34 -30 50 -45 52 -13 2
-23 1 -23 -3 0 -3 16 -37 36 -76 21 -42 33 -78 29 -88 -5 -11 -20 12 -51 77
-25 50 -47 92 -49 92 -3 0 -5 -18 -5 -40z" id="node1" class="node" stroke-width="20"></path>
<path d="M570 2980 c13 -24 26 -26 34 -4 9 23 8 24 -19 24 -23 0 -24 -2 -15
-20z" id="node2" class="node" stroke-width="20"></path>
<path d="M620 2961 c-20 -40 -18 -71 4 -71 11 1 56 80 56 100 0 5 -9 10 -20
10 -13 0 -27 -14 -40 -39z" id="node3" class="node" stroke-width="20"></path>
<path d="M713 2988 c-6 -7 -24 -43 -42 -79 -28 -59 -33 -99 -12 -99 6 0 64
109 99 183 6 12 -35 8 -45 -5z" id="node4" class="node" stroke-width="20"></path>
<path d="M735 2888 c-39 -78 -54 -119 -50 -135 3 -13 9 -23 13 -23 8 0 132
244 132 260 0 5 -9 10 -20 10 -14 0 -32 -27 -75 -112z" id="node5" class="node" stroke-width="20"></path>
<path d="M791 2852 c-68 -137 -81 -180 -56 -189 8 -2 175 314 175 332 0 3 -10
5 -22 5 -19 0 -35 -23 -97 -148z" id="node6" class="node" stroke-width="20"></path>
<path d="M940 2991 c0 -5 6 -14 14 -20 12 -10 17 -8 26 8 9 19 8 21 -15 21
-14 0 -25 -4 -25 -9z" id="node7" class="node" stroke-width="20"></path>
<path d="M997 2959 c-19 -39 -17 -69 3 -69 6 0 20 21 32 48 12 26 24 50 26 55
2 4 -7 7 -20 7 -17 0 -28 -11 -41 -41z" id="node8" class="node" stroke-width="20"></path>
<path d="M1052 2922 c-29 -58 -37 -83 -30 -96 5 -9 13 -14 18 -11 5 3 29 46
55 95 45 89 45 90 21 90 -20 0 -31 -13 -64 -78z" id="node9" class="node" stroke-width="20"></path>
<path d="M1107 2885 c-48 -98 -56 -119 -46 -137 9 -17 13 -18 21 -7 12 19 128
247 128 254 0 3 -10 5 -23 5 -19 0 -32 -19 -80 -115z" id="node10" class="node" stroke-width="20"></path>
<path d="M1165 2850 c-51 -102 -74 -157 -70 -170 4 -11 10 -20 15 -20 8 0 170
314 170 331 0 5 -9 9 -19 9 -15 0 -37 -35 -96 -150z" id="node11" class="node" stroke-width="20"></path>
<path d="M1313 2988 c-5 -7 -49 -93 -97 -190 -80 -161 -96 -208 -68 -208 5 0
54 89 108 198 54 108 99 200 101 205 7 12 -34 8 -44 -5z" id="node12" class="node" stroke-width="20"></path>
<path d="M1280 2778 c-103 -206 -121 -256 -95 -265 6 -2 65 107 132 242 117
233 121 245 98 245 -21 0 -36 -24 -135 -222z" id="node13" class="node" stroke-width="20"></path>
<path d="M1334 2738 c-121 -244 -141 -298 -111 -298 10 0 287 537 287 555 0 3
-10 5 -23 5 -19 0 -40 -35 -153 -262z" id="node14" class="node" stroke-width="20"></path>
<path d="M1390 2699 c-142 -283 -164 -339 -130 -339 5 0 81 144 169 320 149
299 158 320 136 320 -21 0 -40 -33 -175 -301z" id="node15" class="node" stroke-width="20"></path>
<path d="M1446 2660 c-153 -309 -177 -370 -148 -370 7 0 335 639 360 702 2 4
-7 8 -20 8 -20 -1 -43 -41 -192 -340z" id="node16" class="node" stroke-width="20"></path>
<path d="M2070 2980 c13 -24 26 -26 34 -4 9 23 8 24 -19 24 -23 0 -24 -2 -15
-20z" id="node17" class="node" stroke-width="20"></path>
<path d="M2120 2960 c-16 -31 -18 -45 -10 -60 6 -11 13 -20 15 -20 2 0 18 27
34 60 l30 60 -24 0 c-19 0 -30 -10 -45 -40z" id="node18" class="node" stroke-width="20"></path>
<path d="M2177 2921 c-34 -71 -40 -111 -16 -111 6 0 62 103 97 183 2 4 -7 7
-20 7 -19 -1 -30 -15 -61 -79z" id="node19" class="node" stroke-width="20"></path>
<path d="M2234 2886 c-52 -106 -62 -146 -34 -146 5 0 39 59 75 130 64 127 65
130 41 130 -22 0 -32 -15 -82 -114z" id="node20" class="node" stroke-width="20"></path>
<path d="M2288 2847 c-58 -117 -74 -157 -66 -170 5 -10 14 -15 19 -11 9 5 169
317 169 329 0 3 -10 5 -23 5 -19 0 -34 -23 -99 -153z" id="node21" class="node" stroke-width="20"></path>
<path d="M2513 2988 c-4 -7 -99 -195 -210 -417 -162 -324 -200 -408 -192 -423
5 -10 11 -18 13 -18 2 0 100 192 217 428 117 235 214 430 216 435 7 12 -35 8
-44 -5z" id="node22" class="node" stroke-width="20"></path>
<path d="M2364 2545 c-210 -419 -226 -457 -212 -472 15 -15 35 22 252 456 221
442 235 471 212 471 -23 0 -45 -41 -252 -455z" id="node23" class="node" stroke-width="20"></path>
<path d="M2421 2511 c-230 -460 -256 -521 -221 -521 8 0 510 988 510 1005 0 3
-10 5 -23 5 -20 0 -52 -59 -266 -489z" id="node24" class="node" stroke-width="20"></path>
<path d="M2480 2478 c-143 -287 -260 -530 -258 -540 2 -11 8 -20 13 -21 6 -1
132 242 282 541 252 503 270 542 248 542 -22 0 -49 -50 -285 -522z" id="node25" class="node" stroke-width="20"></path>
<path d="M2723 2812 c-65 -132 -91 -194 -87 -209 4 -13 10 -21 14 -18 4 2 47
83 95 180 55 110 92 172 98 166 5 -5 -26 -78 -83 -194 -67 -134 -90 -191 -85
-206 3 -11 9 -21 13 -21 4 0 48 82 98 182 55 110 93 175 96 166 4 -8 -35 -97
-88 -201 -88 -174 -102 -217 -70 -217 6 0 51 80 100 178 52 102 91 170 94 160
2 -10 -38 -99 -88 -199 -85 -169 -101 -219 -70 -219 5 0 48 78 95 172 90 180
105 206 105 173 0 -11 -41 -102 -91 -202 -83 -166 -98 -213 -70 -213 5 0 48
79 96 175 48 96 91 175 96 175 5 0 9 17 9 37 0 27 -21 80 -71 180 -59 119 -74
143 -92 143 -18 -1 -37 -32 -114 -188z" id="node26" class="node" stroke-width="20"></path>
<path d="M2890 2995 c0 -3 24 -51 52 -108 l53 -102 3 39 c5 57 -53 176 -85
176 -13 0 -23 -2 -23 -5z" id="node27" class="node" stroke-width="20"></path>
<path d="M2975 2970 c9 -16 18 -30 20 -30 3 0 5 14 5 30 0 23 -4 30 -20 30
-20 0 -20 -1 -5 -30z" id="node28" class="node" stroke-width="20"></path>
<path d="M2596 2555 c-3 -9 78 -182 197 -418 187 -372 202 -399 205 -363 3 34
-21 89 -185 417 -103 208 -193 378 -199 379 -7 0 -15 -7 -18 -15z" id="node29" class="node" stroke-width="20"></path>
<path d="M2970 2547 c0 -13 7 -32 15 -43 13 -18 14 -16 15 24 0 31 -4 42 -15
42 -9 0 -15 -9 -15 -23z" id="node30" class="node" stroke-width="20"></path>
<path d="M2567 2493 c-4 -3 -7 -15 -7 -25 0 -10 98 -213 217 -451 202 -401
218 -429 221 -392 3 35 -22 91 -205 457 -114 230 -211 418 -214 418 -3 0 -9
-3 -12 -7z" id="node31" class="node" stroke-width="20"></path>
<path d="M2933 2484 c-3 -9 8 -45 28 -83 l34 -66 3 43 c2 30 -3 54 -19 82 -24
43 -36 49 -46 24z" id="node32" class="node" stroke-width="20"></path>
<path d="M2525 2407 c-5 -17 57 -148 232 -497 217 -433 238 -472 241 -436 3
33 -28 101 -225 497 -125 252 -231 458 -235 459 -4 0 -10 -10 -13 -23z" id="node33" class="node" stroke-width="20"></path>
<path d="M2900 2415 c-12 -14 -6 -31 41 -123 l54 -107 3 41 c2 31 -5 58 -32
110 -50 98 -50 98 -66 79z" id="node34" class="node" stroke-width="20"></path>
<path d="M2486 2333 c-5 -11 82 -195 251 -532 235 -469 258 -513 261 -477 3
33 -29 104 -244 532 -135 272 -250 494 -254 494 -4 0 -11 -8 -14 -17z" id="node35" class="node" stroke-width="20"></path>
<path d="M2857 2336 c-4 -9 26 -79 66 -158 69 -137 72 -142 75 -105 3 31 -9
62 -55 155 -58 115 -75 137 -86 108z" id="node36" class="node" stroke-width="20"></path>
<path d="M2447 2259 c-4 -15 23 -79 84 -200 83 -167 100 -210 82 -208 -5 0
-46 79 -93 174 -47 96 -90 175 -97 175 -29 0 -13 -47 73 -221 57 -114 89 -190
85 -198 -5 -8 -40 51 -96 163 -80 162 -115 209 -115 157 0 -10 41 -101 91
-201 59 -118 88 -185 81 -192 -6 -6 -40 52 -97 166 -48 97 -91 176 -96 176
-29 0 -13 -47 71 -215 50 -101 92 -188 92 -192 0 -4 -5 -9 -10 -11 -5 -1 -49
77 -97 174 -80 162 -89 175 -103 160 -15 -15 -9 -32 80 -211 54 -107 93 -197
88 -200 -11 -7 -10 -8 -99 170 -40 82 -80 159 -87 169 -13 19 -14 17 -29 -18
l-16 -38 -90 178 c-49 99 -94 180 -99 182 -33 11 -15 -44 69 -213 85 -170 102
-216 84 -215 -5 1 -46 79 -93 175 -79 163 -99 191 -115 164 -4 -5 34 -93 84
-193 85 -170 103 -217 84 -216 -5 1 -46 79 -93 175 -47 96 -91 174 -97 175
-29 0 -9 -59 76 -228 53 -106 86 -184 82 -191 -5 -7 -42 57 -97 168 -49 100
-93 179 -99 178 -26 -9 -9 -59 75 -227 56 -111 88 -186 82 -192 -5 -5 -43 60
-97 167 -48 96 -92 175 -97 175 -29 0 -13 -49 81 -236 57 -112 106 -204 109
-204 4 0 40 69 81 153 93 188 107 213 114 194 3 -7 -37 -98 -89 -201 -86 -172
-93 -190 -80 -208 14 -19 21 -8 107 163 51 101 94 177 96 167 2 -9 -38 -100
-89 -202 -86 -173 -91 -187 -76 -202 15 -16 23 -5 105 160 79 158 103 197 103
166 0 -5 -41 -92 -90 -192 -50 -100 -89 -189 -88 -197 8 -42 33 -9 114 154 57
114 91 172 97 166 6 -6 -23 -75 -82 -195 -85 -170 -103 -220 -76 -219 6 0 50
80 99 177 60 121 92 173 97 164 5 -9 -26 -84 -89 -211 -53 -108 -100 -196
-103 -196 -3 -1 -88 163 -189 364 -101 201 -186 365 -190 365 -31 0 -3 -68
167 -410 116 -232 183 -377 179 -387 -4 -11 -70 110 -189 347 -100 200 -187
365 -193 367 -37 12 -10 -56 161 -397 172 -344 197 -401 178 -399 -5 0 -89
164 -188 364 -99 201 -184 363 -190 362 -28 -9 -2 -72 169 -414 111 -223 181
-374 177 -382 -5 -8 -78 128 -191 354 -101 202 -188 364 -194 362 -6 -2 -12
-10 -14 -18 -1 -9 81 -182 183 -386 117 -234 183 -377 179 -387 -4 -11 -70
111 -191 354 -102 203 -189 367 -194 365 -4 -3 -53 -96 -109 -206 -83 -165
-98 -203 -90 -219 6 -11 13 -20 15 -20 2 0 40 71 83 158 103 207 102 206 113
195 5 -5 -29 -84 -86 -198 -87 -174 -104 -225 -75 -225 5 0 45 73 89 163 44
89 87 171 95 182 15 19 15 19 16 1 0 -10 -41 -101 -91 -202 -85 -169 -100
-214 -69 -214 5 0 49 79 97 175 79 157 103 196 103 165 0 -6 -41 -92 -90 -192
-83 -165 -102 -223 -75 -223 6 0 51 81 101 179 53 104 94 174 98 167 4 -6 -35
-97 -88 -202 -80 -160 -94 -194 -85 -211 10 -19 11 -19 23 -1 7 10 48 89 91
176 78 158 89 175 99 159 4 -7 -182 -393 -197 -408 -2 -2 -86 161 -186 362
-104 207 -188 363 -195 361 -6 -2 -12 -11 -14 -19 -2 -9 81 -183 183 -388 110
-220 184 -379 180 -388 -3 -9 -77 127 -192 356 -102 205 -189 372 -194 372
-32 0 -7 -62 166 -407 171 -341 198 -404 178 -403 -5 1 -89 163 -188 362 -99
199 -185 363 -191 365 -35 11 -6 -60 162 -394 169 -337 198 -404 177 -403 -5
1 -89 163 -188 362 -99 198 -184 361 -190 362 -32 3 -1 -73 169 -411 103 -208
181 -375 177 -381 -4 -7 -85 144 -190 354 -106 211 -188 363 -194 361 -26 -8
-14 -43 72 -216 50 -99 91 -185 91 -191 0 -34 -28 10 -106 166 -78 158 -88
174 -102 160 -14 -14 -7 -34 79 -203 51 -104 94 -191 94 -195 0 -5 -4 -9 -10
-10 -5 0 -48 75 -95 167 -47 93 -90 170 -96 172 -32 10 -14 -43 73 -217 65
-129 93 -194 86 -201 -7 -7 -39 48 -99 167 -49 97 -93 177 -99 178 -28 3 -8
-58 74 -223 50 -99 91 -185 91 -191 0 -33 -26 9 -104 166 -81 163 -106 196
-114 152 -2 -9 38 -97 87 -197 85 -169 102 -211 84 -211 -5 0 -48 82 -97 181
-80 164 -90 179 -104 165 -14 -14 -7 -32 76 -199 51 -101 92 -193 92 -203 -1
-19 -1 -19 -15 0 -8 10 -92 176 -187 367 -95 192 -177 347 -183 345 -5 -1 -12
-11 -13 -20 -2 -10 81 -186 184 -392 124 -249 184 -378 177 -385 -7 -7 -72
113 -193 356 -101 203 -188 364 -194 362 -6 -2 -12 -11 -14 -19 -2 -9 81 -184
183 -388 107 -215 183 -376 178 -381 -6 -6 -87 145 -192 356 -100 201 -186
365 -191 365 -34 0 -11 -59 165 -409 172 -345 197 -402 178 -401 -5 1 -89 163
-188 362 -99 199 -185 363 -191 365 -36 12 -7 -58 162 -397 115 -228 184 -379
182 -392 -2 -15 -64 100 -187 345 -167 335 -211 407 -211 350 0 -10 41 -100
91 -201 60 -119 88 -187 82 -193 -6 -6 -138 247 -374 718 -338 675 -364 725
-367 687 -3 -38 33 -115 352 -753 196 -391 356 -715 356 -721 0 -5 -4 -10 -8
-10 -5 0 -164 309 -353 688 -319 638 -344 684 -347 646 -3 -38 32 -111 332
-713 185 -369 336 -678 336 -687 0 -8 -4 -13 -9 -10 -4 3 -154 297 -332 653
-298 596 -324 645 -327 608 -3 -36 34 -114 319 -684 207 -415 318 -646 312
-652 -7 -7 -120 209 -319 608 -283 565 -309 615 -312 578 -2 -35 34 -113 298
-641 165 -331 300 -607 300 -613 0 -6 -4 -11 -9 -11 -4 0 -138 259 -296 575
-158 316 -289 575 -291 575 -2 0 -4 -37 -4 -82 1 -72 2 -81 14 -65 24 31 27
-6 5 -51 -13 -26 -19 -54 -17 -79 l4 -38 18 40 c24 54 37 69 46 55 4 -6 -11
-45 -32 -86 -31 -59 -38 -84 -36 -117 l3 -42 45 87 c40 80 60 105 60 78 0 -6
-25 -60 -56 -121 -45 -91 -54 -118 -52 -152 l3 -42 64 128 c37 72 68 124 73
119 5 -5 -24 -75 -67 -163 -63 -128 -76 -162 -73 -194 3 -38 6 -34 83 122 44
89 83 162 88 163 19 1 0 -49 -82 -214 -82 -162 -98 -213 -67 -203 6 2 49 81
96 175 47 94 88 171 93 172 19 1 0 -49 -83 -214 -85 -167 -101 -216 -70 -216
5 0 49 79 97 175 79 157 103 196 103 165 0 -6 -41 -92 -91 -191 -49 -100 -89
-188 -87 -197 8 -43 33 -11 115 152 48 96 92 171 96 167 5 -5 -33 -91 -83
-192 -84 -170 -100 -218 -75 -226 6 -1 42 61 80 140 97 196 111 221 118 204 3
-8 -35 -95 -84 -193 -49 -99 -89 -189 -89 -201 0 -53 30 -12 110 152 47 96 87
174 90 175 3 0 49 -88 103 -195 91 -184 99 -195 125 -195 26 0 33 10 108 162
51 104 80 154 82 141 2 -12 -29 -84 -68 -162 -69 -138 -70 -141 -45 -141 22 0
32 14 82 120 32 65 61 119 66 120 17 1 4 -41 -43 -135 -27 -55 -45 -102 -40
-103 24 -8 41 11 79 90 28 60 41 78 46 66 4 -10 -6 -41 -24 -78 -36 -71 -38
-80 -11 -80 13 0 27 15 43 47 14 27 27 41 31 35 4 -6 0 -25 -9 -41 -8 -17 -15
-32 -15 -36 0 -11 49 -4 53 8 4 9 6 9 6 0 1 -7 14 -13 30 -13 29 0 34 9 202
345 109 218 176 342 182 336 6 -6 -51 -130 -154 -337 -90 -181 -165 -332 -167
-336 -2 -4 7 -8 20 -8 20 1 41 38 177 311 98 197 157 306 162 298 4 -7 2 -24
-5 -38 -7 -14 -74 -149 -149 -298 -128 -259 -134 -273 -111 -273 22 0 38 27
157 269 72 148 135 270 140 270 19 2 -2 -50 -118 -280 -69 -137 -125 -252
-125 -254 0 -3 10 -5 23 -5 19 0 38 32 137 230 103 207 130 253 130 219 0 -5
-47 -105 -105 -220 -58 -116 -105 -215 -105 -220 0 -5 9 -9 20 -9 15 0 40 41
116 195 62 124 101 192 107 186 6 -6 -23 -77 -82 -193 -84 -169 -93 -199 -57
-185 7 3 131 242 276 531 144 289 266 526 271 526 5 0 9 -5 9 -11 0 -7 -112
-236 -249 -510 -137 -274 -252 -508 -256 -519 -5 -16 -2 -20 14 -20 18 0 62
82 269 497 137 274 252 491 256 485 4 -6 -101 -228 -234 -492 -132 -265 -240
-483 -240 -486 0 -2 10 -4 23 -4 19 0 51 57 252 461 131 262 231 452 233 441
2 -11 -96 -218 -217 -461 -206 -412 -219 -441 -196 -441 21 0 44 40 232 419
114 231 211 420 216 420 21 2 -10 -68 -193 -434 -110 -220 -200 -401 -200
-402 0 -2 10 -3 23 -3 19 1 47 52 213 386 l192 385 18 -30 c10 -17 21 -31 24
-31 3 0 129 247 280 550 151 303 278 550 282 550 5 0 8 -5 8 -10 0 -6 -126
-263 -280 -571 -223 -446 -278 -564 -269 -575 6 -8 14 -14 18 -14 3 0 130 247
281 550 153 306 278 546 283 541 5 -5 -117 -259 -274 -575 -258 -517 -282
-568 -267 -582 14 -15 40 32 292 537 153 304 278 555 280 557 2 1 6 -4 9 -12
3 -7 -120 -265 -274 -572 -154 -308 -278 -565 -277 -573 2 -8 8 -16 14 -18 6
-2 133 241 285 546 151 303 277 550 282 551 4 0 7 -7 7 -16 0 -9 -125 -267
-279 -574 -209 -420 -276 -562 -269 -574 5 -9 14 -14 19 -10 6 3 134 253 284
555 l275 549 97 -192 c93 -184 98 -191 101 -154 3 35 -29 105 -263 573 -147
293 -271 533 -275 533 -4 0 -10 -10 -13 -21z" id="node37" class="node" stroke-width="20"></path>
<path d="M2826 2273 c-14 -14 -2 -45 82 -213 82 -165 87 -173 90 -137 3 31
-11 67 -73 193 -76 153 -86 169 -99 157z" id="node38" class="node" stroke-width="20"></path>
<path d="M2783 1434 c-4 -11 28 -87 85 -201 86 -172 103 -214 85 -213 -5 1
-48 82 -97 181 -80 164 -90 179 -104 165 -14 -14 -7 -33 76 -199 51 -101 92
-193 92 -203 -1 -18 -1 -18 -16 1 -8 11 -51 93 -96 183 -73 149 -81 162 -94
144 -12 -17 -3 -40 83 -211 63 -125 93 -195 87 -201 -7 -7 -41 52 -99 167 -49
98 -91 180 -93 183 -2 3 -10 -3 -17 -14 -12 -16 -3 -39 81 -208 55 -111 92
-194 87 -199 -6 -6 -46 64 -97 166 -48 96 -91 175 -96 175 -17 0 -211 -400
-205 -421 4 -10 11 -19 16 -19 5 0 48 79 96 175 79 158 103 196 103 164 0 -6
-41 -92 -90 -191 -50 -99 -90 -187 -88 -196 8 -42 33 -10 114 152 55 110 92
172 97 167 6 -6 -25 -79 -82 -195 -87 -172 -101 -215 -76 -222 6 -2 50 78 99
177 54 109 92 176 96 168 9 -14 7 -20 -93 -218 -74 -149 -91 -201 -64 -201 7
0 52 80 101 178 50 97 91 169 93 160 2 -9 -36 -97 -86 -196 -60 -121 -88 -187
-84 -201 3 -12 9 -21 14 -21 5 0 48 79 96 175 79 158 103 196 103 164 0 -15
-192 -399 -199 -399 -3 1 -44 78 -91 172 -47 94 -90 173 -96 175 -32 10 -15
-43 67 -207 53 -106 89 -189 87 -203 -2 -15 -31 34 -93 158 -49 99 -94 180
-100 180 -28 0 -8 -59 75 -225 54 -108 88 -186 82 -192 -5 -5 -44 64 -96 167
-81 164 -106 197 -114 153 -2 -9 38 -97 87 -197 50 -99 91 -185 91 -191 0 -34
-28 10 -106 166 -79 159 -88 174 -102 160 -15 -14 -7 -34 80 -208 87 -172 105
-220 78 -203 -5 3 -45 79 -90 170 -77 157 -100 191 -107 168 -2 -6 -9 -18 -16
-28 -12 -15 -24 5 -102 159 -48 97 -91 179 -95 181 -4 3 -11 -6 -14 -20 -5
-19 15 -68 84 -205 49 -99 90 -184 90 -190 0 -32 -26 9 -104 165 -48 96 -91
175 -95 175 -5 0 -11 -10 -14 -21 -4 -15 23 -79 84 -200 83 -167 100 -210 82
-209 -5 1 -46 79 -93 175 -47 96 -91 174 -97 175 -28 0 -10 -54 64 -202 99
-196 102 -203 93 -217 -4 -8 -42 59 -96 168 -49 99 -93 179 -99 177 -25 -7
-11 -51 74 -221 57 -113 89 -188 85 -199 -4 -11 -35 42 -95 161 -83 166 -109
202 -117 161 -2 -9 38 -97 88 -197 84 -169 92 -181 118 -181 26 0 33 11 107
160 50 100 83 156 89 150 6 -6 -19 -65 -67 -160 -73 -144 -76 -150 -52 -150
20 0 32 16 80 112 61 122 75 143 75 112 0 -11 -22 -64 -50 -119 -27 -55 -50
-101 -50 -102 0 -2 10 -3 23 -3 17 0 29 14 54 68 17 37 39 76 47 87 30 39 18
-16 -19 -88 l-35 -67 25 0 c20 0 30 9 47 45 21 43 38 58 38 33 -1 -7 -7 -24
-15 -38 -20 -35 -19 -40 10 -40 14 0 25 5 25 12 0 9 3 9 12 0 7 -7 22 -12 34
-12 20 0 55 64 278 511 203 405 256 519 256 550 0 22 -4 39 -8 39 -5 0 -48 79
-96 175 -48 96 -91 175 -97 175 -5 0 -12 -7 -16 -16z" id="node39" class="node" stroke-width="20"></path>
<path d="M2758 480 c-131 -261 -233 -477 -228 -478 6 -2 17 -2 24 1 7 3 111
201 230 440 187 375 217 440 214 474 -3 35 -25 -5 -240 -437z" id="node40" class="node" stroke-width="20"></path>
<path d="M2803 423 c-105 -210 -194 -392 -198 -403 -5 -16 -2 -20 14 -20 17 0
52 61 201 361 160 319 181 366 178 402 -3 40 -14 20 -195 -340z" id="node41" class="node" stroke-width="20"></path>
<path d="M2832 332 c-89 -178 -162 -325 -162 -328 0 -2 10 -4 23 -4 19 0 41
38 166 288 124 249 142 292 139 327 -3 38 -13 21 -166 -283z" id="node42" class="node" stroke-width="20"></path>
<path d="M2868 253 c-121 -239 -126 -253 -104 -253 22 0 36 24 131 212 91 181
106 217 103 252 -3 39 -9 28 -130 -211z" id="node43" class="node" stroke-width="20"></path>
<path d="M350 314 c-12 -13 -3 -37 60 -165 63 -126 78 -149 97 -149 19 0 21 3
14 23 -11 27 -147 297 -154 303 -2 2 -10 -3 -17 -12z" id="node44" class="node" stroke-width="20"></path>
<path d="M1845 311 c-4 -13 19 -70 67 -165 62 -124 76 -146 95 -146 13 0 23 1
23 3 0 13 -163 327 -170 327 -5 0 -11 -9 -15 -19z" id="node45" class="node" stroke-width="20"></path>
<path d="M2970 297 c0 -13 7 -32 15 -43 13 -18 14 -16 15 24 0 31 -4 42 -15
42 -9 0 -15 -9 -15 -23z" id="node46" class="node" stroke-width="20"></path>
<path d="M0 261 c0 -56 103 -261 130 -261 11 0 20 3 20 8 0 10 -141 292 -146
292 -2 0 -4 -18 -4 -39z" id="node47" class="node" stroke-width="20"></path>
<path d="M311 236 c-9 -10 2 -39 45 -125 46 -93 59 -111 78 -111 22 0 20 6
-38 125 -34 68 -64 125 -67 125 -4 0 -12 -6 -18 -14z" id="node48" class="node" stroke-width="20"></path>
<path d="M1807 236 c-4 -9 18 -65 49 -126 42 -84 60 -110 74 -110 11 0 20 6
19 13 -1 20 -114 230 -126 234 -6 2 -13 -3 -16 -11z" id="node49" class="node" stroke-width="20"></path>
<path d="M2933 235 c-3 -9 10 -46 28 -83 l34 -67 3 38 c2 24 -5 54 -18 83 -23
46 -37 55 -47 29z" id="node50" class="node" stroke-width="20"></path>
<path d="M274 163 c-8 -13 -2 -35 25 -90 29 -61 39 -73 59 -73 13 0 22 3 20 8
-22 49 -81 163 -87 166 -4 3 -12 -3 -17 -11z" id="node51" class="node" stroke-width="20"></path>
<path d="M2900 165 c-12 -14 -8 -27 23 -91 28 -55 42 -74 57 -74 27 0 26 8
-15 87 -49 97 -49 97 -65 78z" id="node52" class="node" stroke-width="20"></path>
<path d="M1770 152 c0 -26 59 -142 76 -149 33 -12 31 7 -7 85 -39 77 -69 105
-69 64z" id="node53" class="node" stroke-width="20"></path>
<path d="M0 110 c0 -57 28 -110 57 -110 13 0 22 3 20 8 -2 4 -18 37 -36 75
-18 37 -34 67 -37 67 -2 0 -4 -18 -4 -40z" id="node54" class="node" stroke-width="20"></path>
<path d="M2861 92 c-16 -31 14 -92 46 -92 28 0 28 1 3 48 -34 65 -37 67 -49
44z" id="node55" class="node" stroke-width="20"></path>
<path d="M235 80 c-9 -27 21 -80 45 -80 25 0 25 6 0 58 -22 46 -35 52 -45 22z" id="node56" class="node" stroke-width="20"></path>
<path d="M1733 84 c-9 -25 23 -84 47 -84 25 0 25 4 -1 57 -22 45 -36 53 -46
27z" id="node57" class="node" stroke-width="20"></path>
<path d="M200 16 c0 -9 7 -16 16 -16 17 0 14 22 -4 28 -7 2 -12 -3 -12 -12z" id="node58" class="node" stroke-width="20"></path>
<path d="M1700 15 c-10 -13 -9 -15 9 -15 11 0 21 4 21 9 0 18 -18 21 -30 6z" id="node59" class="node" stroke-width="20"></path>
<path d="M2825 20 c-9 -15 -1 -23 21 -18 15 3 16 4 1 16 -11 9 -17 10 -22 2z" id="node60" class="node" stroke-width="20"></path>
</g>
<g transform="translate(0.000000,300.000000) scale(0.100000,-0.100000)" fill="#6ECE87" stroke="none">



























































</g>
</svg>